<mxfile host="" modified="2020-05-24T15:21:41.060Z" agent="5.0 (X11; Linux x86_64) AppleWebKit/537.36 (KHTML, like Gecko) Code/1.45.0 Chrome/78.0.3904.130 Electron/7.2.4 Safari/537.36" version="13.1.3" etag="lrwgP8mNOWNbAz78NI_h" pages="2">
            <diagram id="diagramid" name="Diagram">
              <mxGraphModel><root><mxCell id="0"/><mxCell id="1" parent="0"/><mxCell id="2" value="UserAuthorizerFunctionServiceRoleBFD21313" style="outlineConnect=0;fontColor=#B3B3B3;gradientColor=#F54749;gradientDirection=north;fillColor=#C7131F;strokeColor=#ffffff;dashed=0;verticalLabelPosition=bottom;verticalAlign=top;align=center;html=1;fontSize=12;fontStyle=0;aspect=fixed;shape=mxgraph.aws4.resourceIcon;resIcon=mxgraph.aws4.role;" vertex="1" parent="1"><mxGeometry x="250" y="3100" width="50" height="50" as="geometry"/></mxCell><mxCell id="3" value="UserAuthorizerFunction3DC8B68B" style="outlineConnect=0;fontColor=#B3B3B3;gradientColor=#F78E04;gradientDirection=north;fillColor=#D05C17;strokeColor=#ffffff;dashed=0;verticalLabelPosition=bottom;verticalAlign=top;align=center;html=1;fontSize=12;fontStyle=0;aspect=fixed;shape=mxgraph.aws4.resourceIcon;resIcon=mxgraph.aws4.lambda;" vertex="1" parent="1"><mxGeometry x="250" y="3900" width="50" height="50" as="geometry"/></mxCell><mxCell id="4" value="ApiApiGateway8FA53210" style="outlineConnect=0;fontColor=#B3B3B3;gradientColor=#aaaaaa;gradientDirection=north;fillColor=#aaaaaa;strokeColor=#ffffff;dashed=0;verticalLabelPosition=bottom;verticalAlign=top;align=center;html=1;fontSize=12;fontStyle=0;aspect=fixed;shape=mxgraph.aws4.resourceIcon;resIcon=mxgraph.aws4.apigatewayv2;" vertex="1" parent="1"><mxGeometry x="250" y="1700" width="50" height="50" as="geometry"/></mxCell><mxCell id="5" value="ApiApiGatewayDefaultStage45C4E76D" style="outlineConnect=0;fontColor=#B3B3B3;gradientColor=#aaaaaa;gradientDirection=north;fillColor=#aaaaaa;strokeColor=#ffffff;dashed=0;verticalLabelPosition=bottom;verticalAlign=top;align=center;html=1;fontSize=12;fontStyle=0;aspect=fixed;shape=mxgraph.aws4.resourceIcon;resIcon=mxgraph.aws4.apigatewayv2;" vertex="1" parent="1"><mxGeometry x="250" y="1400" width="50" height="50" as="geometry"/></mxCell><mxCell id="6" value="ApiApiGatewayPOSTcommandsrunDatabaseMigrationsDevGolangServerlessCDKTemplateApiApiGatewayPOSTcommandsrunDatabaseMigrations32D7928DPermissionB0EED37C" style="outlineConnect=0;fontColor=#B3B3B3;gradientColor=#F54749;gradientDirection=north;fillColor=#C7131F;strokeColor=#ffffff;dashed=0;verticalLabelPosition=bottom;verticalAlign=top;align=center;html=1;fontSize=12;fontStyle=0;aspect=fixed;shape=mxgraph.aws4.resourceIcon;resIcon=mxgraph.aws4.policy;" vertex="1" parent="1"><mxGeometry x="250" y="200" width="50" height="50" as="geometry"/></mxCell><mxCell id="7" value="ApiApiGatewayPOSTcommandsrunDatabaseMigrationsHttpIntegrationdd45a4ab1a687d8fced4e8e100026e1bA9078769" style="outlineConnect=0;fontColor=#B3B3B3;gradientColor=#aaaaaa;gradientDirection=north;fillColor=#aaaaaa;strokeColor=#ffffff;dashed=0;verticalLabelPosition=bottom;verticalAlign=top;align=center;html=1;fontSize=12;fontStyle=0;aspect=fixed;shape=mxgraph.aws4.resourceIcon;resIcon=mxgraph.aws4.apigatewayv2;" vertex="1" parent="1"><mxGeometry x="250" y="1300" width="50" height="50" as="geometry"/></mxCell><mxCell id="8" value="ApiApiGatewayPOSTcommandsrunDatabaseMigrations44D90285" style="outlineConnect=0;fontColor=#B3B3B3;gradientColor=#aaaaaa;gradientDirection=north;fillColor=#aaaaaa;strokeColor=#ffffff;dashed=0;verticalLabelPosition=bottom;verticalAlign=top;align=center;html=1;fontSize=12;fontStyle=0;aspect=fixed;shape=mxgraph.aws4.resourceIcon;resIcon=mxgraph.aws4.apigatewayv2;" vertex="1" parent="1"><mxGeometry y="275" width="50" height="50" as="geometry"/></mxCell><mxCell id="9" value="ApiApiGatewayUserAuthorizer69925AFF" style="outlineConnect=0;fontColor=#B3B3B3;gradientColor=#aaaaaa;gradientDirection=north;fillColor=#aaaaaa;strokeColor=#ffffff;dashed=0;verticalLabelPosition=bottom;verticalAlign=top;align=center;html=1;fontSize=12;fontStyle=0;aspect=fixed;shape=mxgraph.aws4.resourceIcon;resIcon=mxgraph.aws4.apigatewayv2;" vertex="1" parent="1"><mxGeometry x="250" y="1200" width="50" height="50" as="geometry"/></mxCell><mxCell id="10" value="ApiApiGatewayDevGolangServerlessCDKTemplateApiApiGatewayUserAuthorizer234FEDB8PermissionFEFC5203" style="outlineConnect=0;fontColor=#B3B3B3;gradientColor=#F54749;gradientDirection=north;fillColor=#C7131F;strokeColor=#ffffff;dashed=0;verticalLabelPosition=bottom;verticalAlign=top;align=center;html=1;fontSize=12;fontStyle=0;aspect=fixed;shape=mxgraph.aws4.resourceIcon;resIcon=mxgraph.aws4.policy;" vertex="1" parent="1"><mxGeometry y="25" width="50" height="50" as="geometry"/></mxCell><mxCell id="11" value="ApiApiGatewayGETadminleaguesDevGolangServerlessCDKTemplateApiApiGatewayGETadminleagues17039173PermissionED6566D5" style="outlineConnect=0;fontColor=#B3B3B3;gradientColor=#F54749;gradientDirection=north;fillColor=#C7131F;strokeColor=#ffffff;dashed=0;verticalLabelPosition=bottom;verticalAlign=top;align=center;html=1;fontSize=12;fontStyle=0;aspect=fixed;shape=mxgraph.aws4.resourceIcon;resIcon=mxgraph.aws4.policy;" vertex="1" parent="1"><mxGeometry x="250" y="1500" width="50" height="50" as="geometry"/></mxCell><mxCell id="12" value="ApiApiGatewayGETadminleaguesHttpIntegration4b225d72860e46cd9ec0adb1603a42b4F1117C7F" style="outlineConnect=0;fontColor=#B3B3B3;gradientColor=#aaaaaa;gradientDirection=north;fillColor=#aaaaaa;strokeColor=#ffffff;dashed=0;verticalLabelPosition=bottom;verticalAlign=top;align=center;html=1;fontSize=12;fontStyle=0;aspect=fixed;shape=mxgraph.aws4.resourceIcon;resIcon=mxgraph.aws4.apigatewayv2;" vertex="1" parent="1"><mxGeometry x="250" y="1600" width="50" height="50" as="geometry"/></mxCell><mxCell id="13" value="ApiApiGatewayGETadminleagues68E60FC6" style="outlineConnect=0;fontColor=#B3B3B3;gradientColor=#aaaaaa;gradientDirection=north;fillColor=#aaaaaa;strokeColor=#ffffff;dashed=0;verticalLabelPosition=bottom;verticalAlign=top;align=center;html=1;fontSize=12;fontStyle=0;aspect=fixed;shape=mxgraph.aws4.resourceIcon;resIcon=mxgraph.aws4.apigatewayv2;" vertex="1" parent="1"><mxGeometry y="425" width="50" height="50" as="geometry"/></mxCell><mxCell id="14" value="ApiApiGatewayGETadminleagueleagueIdDevGolangServerlessCDKTemplateApiApiGatewayGETadminleagueleagueIdAA9EA8C1Permission349D13AD" style="outlineConnect=0;fontColor=#B3B3B3;gradientColor=#F54749;gradientDirection=north;fillColor=#C7131F;strokeColor=#ffffff;dashed=0;verticalLabelPosition=bottom;verticalAlign=top;align=center;html=1;fontSize=12;fontStyle=0;aspect=fixed;shape=mxgraph.aws4.resourceIcon;resIcon=mxgraph.aws4.policy;" vertex="1" parent="1"><mxGeometry x="250" y="1900" width="50" height="50" as="geometry"/></mxCell><mxCell id="15" value="ApiApiGatewayGETadminleagueleagueIdHttpIntegration26aa1800e71b78cc3b42f429bdd9f74a57E5CB0A" style="outlineConnect=0;fontColor=#B3B3B3;gradientColor=#aaaaaa;gradientDirection=north;fillColor=#aaaaaa;strokeColor=#ffffff;dashed=0;verticalLabelPosition=bottom;verticalAlign=top;align=center;html=1;fontSize=12;fontStyle=0;aspect=fixed;shape=mxgraph.aws4.resourceIcon;resIcon=mxgraph.aws4.apigatewayv2;" vertex="1" parent="1"><mxGeometry x="250" y="1800" width="50" height="50" as="geometry"/></mxCell><mxCell id="16" value="ApiApiGatewayGETadminleagueleagueId5D07B7BD" style="outlineConnect=0;fontColor=#B3B3B3;gradientColor=#aaaaaa;gradientDirection=north;fillColor=#aaaaaa;strokeColor=#ffffff;dashed=0;verticalLabelPosition=bottom;verticalAlign=top;align=center;html=1;fontSize=12;fontStyle=0;aspect=fixed;shape=mxgraph.aws4.resourceIcon;resIcon=mxgraph.aws4.apigatewayv2;" vertex="1" parent="1"><mxGeometry y="575" width="50" height="50" as="geometry"/></mxCell><mxCell id="17" value="ApiApiGatewayPOSTcommandscreateLeagueDevGolangServerlessCDKTemplateApiApiGatewayPOSTcommandscreateLeague7C266B94PermissionBC6A177C" style="outlineConnect=0;fontColor=#B3B3B3;gradientColor=#F54749;gradientDirection=north;fillColor=#C7131F;strokeColor=#ffffff;dashed=0;verticalLabelPosition=bottom;verticalAlign=top;align=center;html=1;fontSize=12;fontStyle=0;aspect=fixed;shape=mxgraph.aws4.resourceIcon;resIcon=mxgraph.aws4.policy;" vertex="1" parent="1"><mxGeometry x="250" y="2100" width="50" height="50" as="geometry"/></mxCell><mxCell id="18" value="ApiApiGatewayPOSTcommandscreateLeagueHttpIntegration239ede395f0f056b577c700f4475e6e756F0C1DB" style="outlineConnect=0;fontColor=#B3B3B3;gradientColor=#aaaaaa;gradientDirection=north;fillColor=#aaaaaa;strokeColor=#ffffff;dashed=0;verticalLabelPosition=bottom;verticalAlign=top;align=center;html=1;fontSize=12;fontStyle=0;aspect=fixed;shape=mxgraph.aws4.resourceIcon;resIcon=mxgraph.aws4.apigatewayv2;" vertex="1" parent="1"><mxGeometry x="250" y="2000" width="50" height="50" as="geometry"/></mxCell><mxCell id="19" value="ApiApiGatewayPOSTcommandscreateLeagueB33A3A0B" style="outlineConnect=0;fontColor=#B3B3B3;gradientColor=#aaaaaa;gradientDirection=north;fillColor=#aaaaaa;strokeColor=#ffffff;dashed=0;verticalLabelPosition=bottom;verticalAlign=top;align=center;html=1;fontSize=12;fontStyle=0;aspect=fixed;shape=mxgraph.aws4.resourceIcon;resIcon=mxgraph.aws4.apigatewayv2;" vertex="1" parent="1"><mxGeometry y="725" width="50" height="50" as="geometry"/></mxCell><mxCell id="20" value="ApiApiGatewayPOSTcommandsdeleteLeagueDevGolangServerlessCDKTemplateApiApiGatewayPOSTcommandsdeleteLeagueD0665E6BPermission1770DECE" style="outlineConnect=0;fontColor=#B3B3B3;gradientColor=#F54749;gradientDirection=north;fillColor=#C7131F;strokeColor=#ffffff;dashed=0;verticalLabelPosition=bottom;verticalAlign=top;align=center;html=1;fontSize=12;fontStyle=0;aspect=fixed;shape=mxgraph.aws4.resourceIcon;resIcon=mxgraph.aws4.policy;" vertex="1" parent="1"><mxGeometry x="250" y="2300" width="50" height="50" as="geometry"/></mxCell><mxCell id="21" value="ApiApiGatewayPOSTcommandsdeleteLeagueHttpIntegration81aec5a85225035c6b4853e91a501afaD56EC450" style="outlineConnect=0;fontColor=#B3B3B3;gradientColor=#aaaaaa;gradientDirection=north;fillColor=#aaaaaa;strokeColor=#ffffff;dashed=0;verticalLabelPosition=bottom;verticalAlign=top;align=center;html=1;fontSize=12;fontStyle=0;aspect=fixed;shape=mxgraph.aws4.resourceIcon;resIcon=mxgraph.aws4.apigatewayv2;" vertex="1" parent="1"><mxGeometry x="250" y="2200" width="50" height="50" as="geometry"/></mxCell><mxCell id="22" value="ApiApiGatewayPOSTcommandsdeleteLeague5288A2D0" style="outlineConnect=0;fontColor=#B3B3B3;gradientColor=#aaaaaa;gradientDirection=north;fillColor=#aaaaaa;strokeColor=#ffffff;dashed=0;verticalLabelPosition=bottom;verticalAlign=top;align=center;html=1;fontSize=12;fontStyle=0;aspect=fixed;shape=mxgraph.aws4.resourceIcon;resIcon=mxgraph.aws4.apigatewayv2;" vertex="1" parent="1"><mxGeometry y="875" width="50" height="50" as="geometry"/></mxCell><mxCell id="23" value="ApiApiGatewayPOSTcommandsudpateLeagueDevGolangServerlessCDKTemplateApiApiGatewayPOSTcommandsudpateLeague2842AD87Permission2F11E945" style="outlineConnect=0;fontColor=#B3B3B3;gradientColor=#F54749;gradientDirection=north;fillColor=#C7131F;strokeColor=#ffffff;dashed=0;verticalLabelPosition=bottom;verticalAlign=top;align=center;html=1;fontSize=12;fontStyle=0;aspect=fixed;shape=mxgraph.aws4.resourceIcon;resIcon=mxgraph.aws4.policy;" vertex="1" parent="1"><mxGeometry x="250" y="2500" width="50" height="50" as="geometry"/></mxCell><mxCell id="24" value="ApiApiGatewayPOSTcommandsudpateLeagueHttpIntegration72125546cc61a4a8fd178e28986ee3086C9B6E9B" style="outlineConnect=0;fontColor=#B3B3B3;gradientColor=#aaaaaa;gradientDirection=north;fillColor=#aaaaaa;strokeColor=#ffffff;dashed=0;verticalLabelPosition=bottom;verticalAlign=top;align=center;html=1;fontSize=12;fontStyle=0;aspect=fixed;shape=mxgraph.aws4.resourceIcon;resIcon=mxgraph.aws4.apigatewayv2;" vertex="1" parent="1"><mxGeometry x="250" y="2400" width="50" height="50" as="geometry"/></mxCell><mxCell id="25" value="ApiApiGatewayPOSTcommandsudpateLeagueCE9BDE97" style="outlineConnect=0;fontColor=#B3B3B3;gradientColor=#aaaaaa;gradientDirection=north;fillColor=#aaaaaa;strokeColor=#ffffff;dashed=0;verticalLabelPosition=bottom;verticalAlign=top;align=center;html=1;fontSize=12;fontStyle=0;aspect=fixed;shape=mxgraph.aws4.resourceIcon;resIcon=mxgraph.aws4.apigatewayv2;" vertex="1" parent="1"><mxGeometry y="1025" width="50" height="50" as="geometry"/></mxCell><mxCell id="26" value="ApirunDatabaseMigrationsFunctionServiceRole42786703" style="outlineConnect=0;fontColor=#B3B3B3;gradientColor=#F54749;gradientDirection=north;fillColor=#C7131F;strokeColor=#ffffff;dashed=0;verticalLabelPosition=bottom;verticalAlign=top;align=center;html=1;fontSize=12;fontStyle=0;aspect=fixed;shape=mxgraph.aws4.resourceIcon;resIcon=mxgraph.aws4.role;" vertex="1" parent="1"><mxGeometry x="250" y="3300" width="50" height="50" as="geometry"/></mxCell><mxCell id="27" value="ApirunDatabaseMigrationsFunction33DD5780" style="outlineConnect=0;fontColor=#B3B3B3;gradientColor=#F78E04;gradientDirection=north;fillColor=#D05C17;strokeColor=#ffffff;dashed=0;verticalLabelPosition=bottom;verticalAlign=top;align=center;html=1;fontSize=12;fontStyle=0;aspect=fixed;shape=mxgraph.aws4.resourceIcon;resIcon=mxgraph.aws4.lambda;" vertex="1" parent="1"><mxGeometry x="250" y="2600" width="50" height="50" as="geometry"/></mxCell><mxCell id="28" value="ApisearchLeaguesFunctionServiceRoleC4F419C7" style="outlineConnect=0;fontColor=#B3B3B3;gradientColor=#F54749;gradientDirection=north;fillColor=#C7131F;strokeColor=#ffffff;dashed=0;verticalLabelPosition=bottom;verticalAlign=top;align=center;html=1;fontSize=12;fontStyle=0;aspect=fixed;shape=mxgraph.aws4.resourceIcon;resIcon=mxgraph.aws4.role;" vertex="1" parent="1"><mxGeometry x="250" y="3400" width="50" height="50" as="geometry"/></mxCell><mxCell id="29" value="ApisearchLeaguesFunction369CF89F" style="outlineConnect=0;fontColor=#B3B3B3;gradientColor=#F78E04;gradientDirection=north;fillColor=#D05C17;strokeColor=#ffffff;dashed=0;verticalLabelPosition=bottom;verticalAlign=top;align=center;html=1;fontSize=12;fontStyle=0;aspect=fixed;shape=mxgraph.aws4.resourceIcon;resIcon=mxgraph.aws4.lambda;" vertex="1" parent="1"><mxGeometry x="250" y="2700" width="50" height="50" as="geometry"/></mxCell><mxCell id="30" value="ApigetLeagueByIdFunctionServiceRole7BED2FF0" style="outlineConnect=0;fontColor=#B3B3B3;gradientColor=#F54749;gradientDirection=north;fillColor=#C7131F;strokeColor=#ffffff;dashed=0;verticalLabelPosition=bottom;verticalAlign=top;align=center;html=1;fontSize=12;fontStyle=0;aspect=fixed;shape=mxgraph.aws4.resourceIcon;resIcon=mxgraph.aws4.role;" vertex="1" parent="1"><mxGeometry x="250" y="3500" width="50" height="50" as="geometry"/></mxCell><mxCell id="31" value="ApigetLeagueByIdFunction553AFD94" style="outlineConnect=0;fontColor=#B3B3B3;gradientColor=#F78E04;gradientDirection=north;fillColor=#D05C17;strokeColor=#ffffff;dashed=0;verticalLabelPosition=bottom;verticalAlign=top;align=center;html=1;fontSize=12;fontStyle=0;aspect=fixed;shape=mxgraph.aws4.resourceIcon;resIcon=mxgraph.aws4.lambda;" vertex="1" parent="1"><mxGeometry x="250" y="2800" width="50" height="50" as="geometry"/></mxCell><mxCell id="32" value="ApicreateLeagueFunctionServiceRoleD3623658" style="outlineConnect=0;fontColor=#B3B3B3;gradientColor=#F54749;gradientDirection=north;fillColor=#C7131F;strokeColor=#ffffff;dashed=0;verticalLabelPosition=bottom;verticalAlign=top;align=center;html=1;fontSize=12;fontStyle=0;aspect=fixed;shape=mxgraph.aws4.resourceIcon;resIcon=mxgraph.aws4.role;" vertex="1" parent="1"><mxGeometry x="250" y="3600" width="50" height="50" as="geometry"/></mxCell><mxCell id="33" value="ApicreateLeagueFunctionB9B84F18" style="outlineConnect=0;fontColor=#B3B3B3;gradientColor=#F78E04;gradientDirection=north;fillColor=#D05C17;strokeColor=#ffffff;dashed=0;verticalLabelPosition=bottom;verticalAlign=top;align=center;html=1;fontSize=12;fontStyle=0;aspect=fixed;shape=mxgraph.aws4.resourceIcon;resIcon=mxgraph.aws4.lambda;" vertex="1" parent="1"><mxGeometry x="250" y="2900" width="50" height="50" as="geometry"/></mxCell><mxCell id="34" value="ApideleteLeagueFunctionServiceRoleAB78B673" style="outlineConnect=0;fontColor=#B3B3B3;gradientColor=#F54749;gradientDirection=north;fillColor=#C7131F;strokeColor=#ffffff;dashed=0;verticalLabelPosition=bottom;verticalAlign=top;align=center;html=1;fontSize=12;fontStyle=0;aspect=fixed;shape=mxgraph.aws4.resourceIcon;resIcon=mxgraph.aws4.role;" vertex="1" parent="1"><mxGeometry x="250" y="3700" width="50" height="50" as="geometry"/></mxCell><mxCell id="35" value="ApideleteLeagueFunctionF1B16820" style="outlineConnect=0;fontColor=#B3B3B3;gradientColor=#F78E04;gradientDirection=north;fillColor=#D05C17;strokeColor=#ffffff;dashed=0;verticalLabelPosition=bottom;verticalAlign=top;align=center;html=1;fontSize=12;fontStyle=0;aspect=fixed;shape=mxgraph.aws4.resourceIcon;resIcon=mxgraph.aws4.lambda;" vertex="1" parent="1"><mxGeometry x="250" y="3000" width="50" height="50" as="geometry"/></mxCell><mxCell id="36" value="ApiupdateLeagueFunctionServiceRoleFA292EC0" style="outlineConnect=0;fontColor=#B3B3B3;gradientColor=#F54749;gradientDirection=north;fillColor=#C7131F;strokeColor=#ffffff;dashed=0;verticalLabelPosition=bottom;verticalAlign=top;align=center;html=1;fontSize=12;fontStyle=0;aspect=fixed;shape=mxgraph.aws4.resourceIcon;resIcon=mxgraph.aws4.role;" vertex="1" parent="1"><mxGeometry x="250" y="3800" width="50" height="50" as="geometry"/></mxCell><mxCell id="37" value="ApiupdateLeagueFunction702EB522" style="outlineConnect=0;fontColor=#B3B3B3;gradientColor=#F78E04;gradientDirection=north;fillColor=#D05C17;strokeColor=#ffffff;dashed=0;verticalLabelPosition=bottom;verticalAlign=top;align=center;html=1;fontSize=12;fontStyle=0;aspect=fixed;shape=mxgraph.aws4.resourceIcon;resIcon=mxgraph.aws4.lambda;" vertex="1" parent="1"><mxGeometry x="250" y="3200" width="50" height="50" as="geometry"/></mxCell><mxCell id="38" value="CDKMetadata" style="outlineConnect=0;fontColor=#B3B3B3;gradientColor=#aaaaaa;gradientDirection=north;fillColor=#aaaaaa;strokeColor=#ffffff;dashed=0;verticalLabelPosition=bottom;verticalAlign=top;align=center;html=1;fontSize=12;fontStyle=0;aspect=fixed;shape=mxgraph.aws4.resourceIcon;resIcon=mxgraph.aws4.cdk;" vertex="1" parent="1"><mxGeometry y="4050" width="50" height="50" as="geometry"/></mxCell><mxCell id="39" value="UserAuthorizerFunctionServiceRoleBFD21313" style="outlineConnect=0;fontColor=#B3B3B3;gradientColor=#F54749;gradientDirection=north;fillColor=#C7131F;strokeColor=#ffffff;dashed=0;verticalLabelPosition=bottom;verticalAlign=top;align=center;html=1;fontSize=12;fontStyle=0;aspect=fixed;shape=mxgraph.aws4.resourceIcon;resIcon=mxgraph.aws4.role;" vertex="1" parent="1"><mxGeometry x="500" y="3900" width="50" height="50" as="geometry"/></mxCell><mxCell id="40" value="UserAuthorizerFunction3DC8B68B" style="outlineConnect=0;fontColor=#B3B3B3;gradientColor=#F78E04;gradientDirection=north;fillColor=#D05C17;strokeColor=#ffffff;dashed=0;verticalLabelPosition=bottom;verticalAlign=top;align=center;html=1;fontSize=12;fontStyle=0;aspect=fixed;shape=mxgraph.aws4.resourceIcon;resIcon=mxgraph.aws4.lambda;" vertex="1" parent="1"><mxGeometry x="500" y="587.5" width="50" height="50" as="geometry"/></mxCell><mxCell id="41" value="ApiApiGateway8FA53210" style="outlineConnect=0;fontColor=#B3B3B3;gradientColor=#aaaaaa;gradientDirection=north;fillColor=#aaaaaa;strokeColor=#ffffff;dashed=0;verticalLabelPosition=bottom;verticalAlign=top;align=center;html=1;fontSize=12;fontStyle=0;aspect=fixed;shape=mxgraph.aws4.resourceIcon;resIcon=mxgraph.aws4.apigatewayv2;" vertex="1" parent="1"><mxGeometry x="500" y="1400" width="50" height="50" as="geometry"/></mxCell><mxCell id="42" value="ApiApiGatewayDefaultStage45C4E76D" style="outlineConnect=0;fontColor=#B3B3B3;gradientColor=#aaaaaa;gradientDirection=north;fillColor=#aaaaaa;strokeColor=#ffffff;dashed=0;verticalLabelPosition=bottom;verticalAlign=top;align=center;html=1;fontSize=12;fontStyle=0;aspect=fixed;shape=mxgraph.aws4.resourceIcon;resIcon=mxgraph.aws4.apigatewayv2;" vertex="1" parent="1"><mxGeometry y="4200" width="50" height="50" as="geometry"/></mxCell><mxCell id="43" value="ApiApiGatewayPOSTcommandsrunDatabaseMigrationsDevGolangServerlessCDKTemplateApiApiGatewayPOSTcommandsrunDatabaseMigrations32D7928DPermissionB0EED37C" style="outlineConnect=0;fontColor=#B3B3B3;gradientColor=#F54749;gradientDirection=north;fillColor=#C7131F;strokeColor=#ffffff;dashed=0;verticalLabelPosition=bottom;verticalAlign=top;align=center;html=1;fontSize=12;fontStyle=0;aspect=fixed;shape=mxgraph.aws4.resourceIcon;resIcon=mxgraph.aws4.policy;" vertex="1" parent="1"><mxGeometry y="4350" width="50" height="50" as="geometry"/></mxCell><mxCell id="44" value="ApiApiGatewayPOSTcommandsrunDatabaseMigrationsHttpIntegrationdd45a4ab1a687d8fced4e8e100026e1bA9078769" style="outlineConnect=0;fontColor=#B3B3B3;gradientColor=#aaaaaa;gradientDirection=north;fillColor=#aaaaaa;strokeColor=#ffffff;dashed=0;verticalLabelPosition=bottom;verticalAlign=top;align=center;html=1;fontSize=12;fontStyle=0;aspect=fixed;shape=mxgraph.aws4.resourceIcon;resIcon=mxgraph.aws4.apigatewayv2;" vertex="1" parent="1"><mxGeometry x="250" y="100" width="50" height="50" as="geometry"/></mxCell><mxCell id="45" value="ApiApiGatewayPOSTcommandsrunDatabaseMigrations44D90285" style="outlineConnect=0;fontColor=#B3B3B3;gradientColor=#aaaaaa;gradientDirection=north;fillColor=#aaaaaa;strokeColor=#ffffff;dashed=0;verticalLabelPosition=bottom;verticalAlign=top;align=center;html=1;fontSize=12;fontStyle=0;aspect=fixed;shape=mxgraph.aws4.resourceIcon;resIcon=mxgraph.aws4.apigatewayv2;" vertex="1" parent="1"><mxGeometry y="4500" width="50" height="50" as="geometry"/></mxCell><mxCell id="46" value="ApiApiGatewayUserAuthorizer69925AFF" style="outlineConnect=0;fontColor=#B3B3B3;gradientColor=#aaaaaa;gradientDirection=north;fillColor=#aaaaaa;strokeColor=#ffffff;dashed=0;verticalLabelPosition=bottom;verticalAlign=top;align=center;html=1;fontSize=12;fontStyle=0;aspect=fixed;shape=mxgraph.aws4.resourceIcon;resIcon=mxgraph.aws4.apigatewayv2;" vertex="1" parent="1"><mxGeometry x="250" y="500" width="50" height="50" as="geometry"/></mxCell><mxCell id="47" value="ApiApiGatewayDevGolangServerlessCDKTemplateApiApiGatewayUserAuthorizer234FEDB8PermissionFEFC5203" style="outlineConnect=0;fontColor=#B3B3B3;gradientColor=#F54749;gradientDirection=north;fillColor=#C7131F;strokeColor=#ffffff;dashed=0;verticalLabelPosition=bottom;verticalAlign=top;align=center;html=1;fontSize=12;fontStyle=0;aspect=fixed;shape=mxgraph.aws4.resourceIcon;resIcon=mxgraph.aws4.policy;" vertex="1" parent="1"><mxGeometry y="4650" width="50" height="50" as="geometry"/></mxCell><mxCell id="48" value="ApiApiGatewayGETadminleaguesDevGolangServerlessCDKTemplateApiApiGatewayGETadminleagues17039173PermissionED6566D5" style="outlineConnect=0;fontColor=#B3B3B3;gradientColor=#F54749;gradientDirection=north;fillColor=#C7131F;strokeColor=#ffffff;dashed=0;verticalLabelPosition=bottom;verticalAlign=top;align=center;html=1;fontSize=12;fontStyle=0;aspect=fixed;shape=mxgraph.aws4.resourceIcon;resIcon=mxgraph.aws4.policy;" vertex="1" parent="1"><mxGeometry y="4800" width="50" height="50" as="geometry"/></mxCell><mxCell id="49" value="ApiApiGatewayGETadminleaguesHttpIntegration4b225d72860e46cd9ec0adb1603a42b4F1117C7F" style="outlineConnect=0;fontColor=#B3B3B3;gradientColor=#aaaaaa;gradientDirection=north;fillColor=#aaaaaa;strokeColor=#ffffff;dashed=0;verticalLabelPosition=bottom;verticalAlign=top;align=center;html=1;fontSize=12;fontStyle=0;aspect=fixed;shape=mxgraph.aws4.resourceIcon;resIcon=mxgraph.aws4.apigatewayv2;" vertex="1" parent="1"><mxGeometry x="250" y="350" width="50" height="50" as="geometry"/></mxCell><mxCell id="50" value="ApiApiGatewayGETadminleagues68E60FC6" style="outlineConnect=0;fontColor=#B3B3B3;gradientColor=#aaaaaa;gradientDirection=north;fillColor=#aaaaaa;strokeColor=#ffffff;dashed=0;verticalLabelPosition=bottom;verticalAlign=top;align=center;html=1;fontSize=12;fontStyle=0;aspect=fixed;shape=mxgraph.aws4.resourceIcon;resIcon=mxgraph.aws4.apigatewayv2;" vertex="1" parent="1"><mxGeometry y="4950" width="50" height="50" as="geometry"/></mxCell><mxCell id="51" value="ApiApiGatewayGETadminleagueleagueIdDevGolangServerlessCDKTemplateApiApiGatewayGETadminleagueleagueIdAA9EA8C1Permission349D13AD" style="outlineConnect=0;fontColor=#B3B3B3;gradientColor=#F54749;gradientDirection=north;fillColor=#C7131F;strokeColor=#ffffff;dashed=0;verticalLabelPosition=bottom;verticalAlign=top;align=center;html=1;fontSize=12;fontStyle=0;aspect=fixed;shape=mxgraph.aws4.resourceIcon;resIcon=mxgraph.aws4.policy;" vertex="1" parent="1"><mxGeometry y="5100" width="50" height="50" as="geometry"/></mxCell><mxCell id="52" value="ApiApiGatewayGETadminleagueleagueIdHttpIntegration26aa1800e71b78cc3b42f429bdd9f74a57E5CB0A" style="outlineConnect=0;fontColor=#B3B3B3;gradientColor=#aaaaaa;gradientDirection=north;fillColor=#aaaaaa;strokeColor=#ffffff;dashed=0;verticalLabelPosition=bottom;verticalAlign=top;align=center;html=1;fontSize=12;fontStyle=0;aspect=fixed;shape=mxgraph.aws4.resourceIcon;resIcon=mxgraph.aws4.apigatewayv2;" vertex="1" parent="1"><mxGeometry x="250" y="650" width="50" height="50" as="geometry"/></mxCell><mxCell id="53" value="ApiApiGatewayGETadminleagueleagueId5D07B7BD" style="outlineConnect=0;fontColor=#B3B3B3;gradientColor=#aaaaaa;gradientDirection=north;fillColor=#aaaaaa;strokeColor=#ffffff;dashed=0;verticalLabelPosition=bottom;verticalAlign=top;align=center;html=1;fontSize=12;fontStyle=0;aspect=fixed;shape=mxgraph.aws4.resourceIcon;resIcon=mxgraph.aws4.apigatewayv2;" vertex="1" parent="1"><mxGeometry y="5250" width="50" height="50" as="geometry"/></mxCell><mxCell id="54" value="ApiApiGatewayPOSTcommandscreateLeagueDevGolangServerlessCDKTemplateApiApiGatewayPOSTcommandscreateLeague7C266B94PermissionBC6A177C" style="outlineConnect=0;fontColor=#B3B3B3;gradientColor=#F54749;gradientDirection=north;fillColor=#C7131F;strokeColor=#ffffff;dashed=0;verticalLabelPosition=bottom;verticalAlign=top;align=center;html=1;fontSize=12;fontStyle=0;aspect=fixed;shape=mxgraph.aws4.resourceIcon;resIcon=mxgraph.aws4.policy;" vertex="1" parent="1"><mxGeometry y="5400" width="50" height="50" as="geometry"/></mxCell><mxCell id="55" value="ApiApiGatewayPOSTcommandscreateLeagueHttpIntegration239ede395f0f056b577c700f4475e6e756F0C1DB" style="outlineConnect=0;fontColor=#B3B3B3;gradientColor=#aaaaaa;gradientDirection=north;fillColor=#aaaaaa;strokeColor=#ffffff;dashed=0;verticalLabelPosition=bottom;verticalAlign=top;align=center;html=1;fontSize=12;fontStyle=0;aspect=fixed;shape=mxgraph.aws4.resourceIcon;resIcon=mxgraph.aws4.apigatewayv2;" vertex="1" parent="1"><mxGeometry x="250" y="800" width="50" height="50" as="geometry"/></mxCell><mxCell id="56" value="ApiApiGatewayPOSTcommandscreateLeagueB33A3A0B" style="outlineConnect=0;fontColor=#B3B3B3;gradientColor=#aaaaaa;gradientDirection=north;fillColor=#aaaaaa;strokeColor=#ffffff;dashed=0;verticalLabelPosition=bottom;verticalAlign=top;align=center;html=1;fontSize=12;fontStyle=0;aspect=fixed;shape=mxgraph.aws4.resourceIcon;resIcon=mxgraph.aws4.apigatewayv2;" vertex="1" parent="1"><mxGeometry y="5550" width="50" height="50" as="geometry"/></mxCell><mxCell id="57" value="ApiApiGatewayPOSTcommandsdeleteLeagueDevGolangServerlessCDKTemplateApiApiGatewayPOSTcommandsdeleteLeagueD0665E6BPermission1770DECE" style="outlineConnect=0;fontColor=#B3B3B3;gradientColor=#F54749;gradientDirection=north;fillColor=#C7131F;strokeColor=#ffffff;dashed=0;verticalLabelPosition=bottom;verticalAlign=top;align=center;html=1;fontSize=12;fontStyle=0;aspect=fixed;shape=mxgraph.aws4.resourceIcon;resIcon=mxgraph.aws4.policy;" vertex="1" parent="1"><mxGeometry y="5700" width="50" height="50" as="geometry"/></mxCell><mxCell id="58" value="ApiApiGatewayPOSTcommandsdeleteLeagueHttpIntegration81aec5a85225035c6b4853e91a501afaD56EC450" style="outlineConnect=0;fontColor=#B3B3B3;gradientColor=#aaaaaa;gradientDirection=north;fillColor=#aaaaaa;strokeColor=#ffffff;dashed=0;verticalLabelPosition=bottom;verticalAlign=top;align=center;html=1;fontSize=12;fontStyle=0;aspect=fixed;shape=mxgraph.aws4.resourceIcon;resIcon=mxgraph.aws4.apigatewayv2;" vertex="1" parent="1"><mxGeometry x="250" y="950" width="50" height="50" as="geometry"/></mxCell><mxCell id="59" value="ApiApiGatewayPOSTcommandsdeleteLeague5288A2D0" style="outlineConnect=0;fontColor=#B3B3B3;gradientColor=#aaaaaa;gradientDirection=north;fillColor=#aaaaaa;strokeColor=#ffffff;dashed=0;verticalLabelPosition=bottom;verticalAlign=top;align=center;html=1;fontSize=12;fontStyle=0;aspect=fixed;shape=mxgraph.aws4.resourceIcon;resIcon=mxgraph.aws4.apigatewayv2;" vertex="1" parent="1"><mxGeometry y="5850" width="50" height="50" as="geometry"/></mxCell><mxCell id="60" value="ApiApiGatewayPOSTcommandsudpateLeagueDevGolangServerlessCDKTemplateApiApiGatewayPOSTcommandsudpateLeague2842AD87Permission2F11E945" style="outlineConnect=0;fontColor=#B3B3B3;gradientColor=#F54749;gradientDirection=north;fillColor=#C7131F;strokeColor=#ffffff;dashed=0;verticalLabelPosition=bottom;verticalAlign=top;align=center;html=1;fontSize=12;fontStyle=0;aspect=fixed;shape=mxgraph.aws4.resourceIcon;resIcon=mxgraph.aws4.policy;" vertex="1" parent="1"><mxGeometry y="6000" width="50" height="50" as="geometry"/></mxCell><mxCell id="61" value="ApiApiGatewayPOSTcommandsudpateLeagueHttpIntegration72125546cc61a4a8fd178e28986ee3086C9B6E9B" style="outlineConnect=0;fontColor=#B3B3B3;gradientColor=#aaaaaa;gradientDirection=north;fillColor=#aaaaaa;strokeColor=#ffffff;dashed=0;verticalLabelPosition=bottom;verticalAlign=top;align=center;html=1;fontSize=12;fontStyle=0;aspect=fixed;shape=mxgraph.aws4.resourceIcon;resIcon=mxgraph.aws4.apigatewayv2;" vertex="1" parent="1"><mxGeometry x="250" y="1100" width="50" height="50" as="geometry"/></mxCell><mxCell id="62" value="ApiApiGatewayPOSTcommandsudpateLeagueCE9BDE97" style="outlineConnect=0;fontColor=#B3B3B3;gradientColor=#aaaaaa;gradientDirection=north;fillColor=#aaaaaa;strokeColor=#ffffff;dashed=0;verticalLabelPosition=bottom;verticalAlign=top;align=center;html=1;fontSize=12;fontStyle=0;aspect=fixed;shape=mxgraph.aws4.resourceIcon;resIcon=mxgraph.aws4.apigatewayv2;" vertex="1" parent="1"><mxGeometry y="6150" width="50" height="50" as="geometry"/></mxCell><mxCell id="63" value="ApirunDatabaseMigrationsFunctionServiceRole42786703" style="outlineConnect=0;fontColor=#B3B3B3;gradientColor=#F54749;gradientDirection=north;fillColor=#C7131F;strokeColor=#ffffff;dashed=0;verticalLabelPosition=bottom;verticalAlign=top;align=center;html=1;fontSize=12;fontStyle=0;aspect=fixed;shape=mxgraph.aws4.resourceIcon;resIcon=mxgraph.aws4.role;" vertex="1" parent="1"><mxGeometry x="500" y="2050" width="50" height="50" as="geometry"/></mxCell><mxCell id="64" value="ApirunDatabaseMigrationsFunction33DD5780" style="outlineConnect=0;fontColor=#B3B3B3;gradientColor=#F78E04;gradientDirection=north;fillColor=#D05C17;strokeColor=#ffffff;dashed=0;verticalLabelPosition=bottom;verticalAlign=top;align=center;html=1;fontSize=12;fontStyle=0;aspect=fixed;shape=mxgraph.aws4.resourceIcon;resIcon=mxgraph.aws4.lambda;" vertex="1" parent="1"><mxGeometry x="500" y="750" width="50" height="50" as="geometry"/></mxCell><mxCell id="65" value="ApisearchLeaguesFunctionServiceRoleC4F419C7" style="outlineConnect=0;fontColor=#B3B3B3;gradientColor=#F54749;gradientDirection=north;fillColor=#C7131F;strokeColor=#ffffff;dashed=0;verticalLabelPosition=bottom;verticalAlign=top;align=center;html=1;fontSize=12;fontStyle=0;aspect=fixed;shape=mxgraph.aws4.resourceIcon;resIcon=mxgraph.aws4.role;" vertex="1" parent="1"><mxGeometry x="500" y="2150" width="50" height="50" as="geometry"/></mxCell><mxCell id="66" value="ApisearchLeaguesFunction369CF89F" style="outlineConnect=0;fontColor=#B3B3B3;gradientColor=#F78E04;gradientDirection=north;fillColor=#D05C17;strokeColor=#ffffff;dashed=0;verticalLabelPosition=bottom;verticalAlign=top;align=center;html=1;fontSize=12;fontStyle=0;aspect=fixed;shape=mxgraph.aws4.resourceIcon;resIcon=mxgraph.aws4.lambda;" vertex="1" parent="1"><mxGeometry x="500" y="1550" width="50" height="50" as="geometry"/></mxCell><mxCell id="67" value="ApigetLeagueByIdFunctionServiceRole7BED2FF0" style="outlineConnect=0;fontColor=#B3B3B3;gradientColor=#F54749;gradientDirection=north;fillColor=#C7131F;strokeColor=#ffffff;dashed=0;verticalLabelPosition=bottom;verticalAlign=top;align=center;html=1;fontSize=12;fontStyle=0;aspect=fixed;shape=mxgraph.aws4.resourceIcon;resIcon=mxgraph.aws4.role;" vertex="1" parent="1"><mxGeometry x="500" y="2250" width="50" height="50" as="geometry"/></mxCell><mxCell id="68" value="ApigetLeagueByIdFunction553AFD94" style="outlineConnect=0;fontColor=#B3B3B3;gradientColor=#F78E04;gradientDirection=north;fillColor=#D05C17;strokeColor=#ffffff;dashed=0;verticalLabelPosition=bottom;verticalAlign=top;align=center;html=1;fontSize=12;fontStyle=0;aspect=fixed;shape=mxgraph.aws4.resourceIcon;resIcon=mxgraph.aws4.lambda;" vertex="1" parent="1"><mxGeometry x="500" y="1650" width="50" height="50" as="geometry"/></mxCell><mxCell id="69" value="ApicreateLeagueFunctionServiceRoleD3623658" style="outlineConnect=0;fontColor=#B3B3B3;gradientColor=#F54749;gradientDirection=north;fillColor=#C7131F;strokeColor=#ffffff;dashed=0;verticalLabelPosition=bottom;verticalAlign=top;align=center;html=1;fontSize=12;fontStyle=0;aspect=fixed;shape=mxgraph.aws4.resourceIcon;resIcon=mxgraph.aws4.role;" vertex="1" parent="1"><mxGeometry x="500" y="2350" width="50" height="50" as="geometry"/></mxCell><mxCell id="70" value="ApicreateLeagueFunctionB9B84F18" style="outlineConnect=0;fontColor=#B3B3B3;gradientColor=#F78E04;gradientDirection=north;fillColor=#D05C17;strokeColor=#ffffff;dashed=0;verticalLabelPosition=bottom;verticalAlign=top;align=center;html=1;fontSize=12;fontStyle=0;aspect=fixed;shape=mxgraph.aws4.resourceIcon;resIcon=mxgraph.aws4.lambda;" vertex="1" parent="1"><mxGeometry x="500" y="1750" width="50" height="50" as="geometry"/></mxCell><mxCell id="71" value="ApideleteLeagueFunctionServiceRoleAB78B673" style="outlineConnect=0;fontColor=#B3B3B3;gradientColor=#F54749;gradientDirection=north;fillColor=#C7131F;strokeColor=#ffffff;dashed=0;verticalLabelPosition=bottom;verticalAlign=top;align=center;html=1;fontSize=12;fontStyle=0;aspect=fixed;shape=mxgraph.aws4.resourceIcon;resIcon=mxgraph.aws4.role;" vertex="1" parent="1"><mxGeometry x="500" y="2450" width="50" height="50" as="geometry"/></mxCell><mxCell id="72" value="ApideleteLeagueFunctionF1B16820" style="outlineConnect=0;fontColor=#B3B3B3;gradientColor=#F78E04;gradientDirection=north;fillColor=#D05C17;strokeColor=#ffffff;dashed=0;verticalLabelPosition=bottom;verticalAlign=top;align=center;html=1;fontSize=12;fontStyle=0;aspect=fixed;shape=mxgraph.aws4.resourceIcon;resIcon=mxgraph.aws4.lambda;" vertex="1" parent="1"><mxGeometry x="500" y="1850" width="50" height="50" as="geometry"/></mxCell><mxCell id="73" value="ApiupdateLeagueFunctionServiceRoleFA292EC0" style="outlineConnect=0;fontColor=#B3B3B3;gradientColor=#F54749;gradientDirection=north;fillColor=#C7131F;strokeColor=#ffffff;dashed=0;verticalLabelPosition=bottom;verticalAlign=top;align=center;html=1;fontSize=12;fontStyle=0;aspect=fixed;shape=mxgraph.aws4.resourceIcon;resIcon=mxgraph.aws4.role;" vertex="1" parent="1"><mxGeometry x="500" y="2550" width="50" height="50" as="geometry"/></mxCell><mxCell id="74" value="ApiupdateLeagueFunction702EB522" style="outlineConnect=0;fontColor=#B3B3B3;gradientColor=#F78E04;gradientDirection=north;fillColor=#D05C17;strokeColor=#ffffff;dashed=0;verticalLabelPosition=bottom;verticalAlign=top;align=center;html=1;fontSize=12;fontStyle=0;aspect=fixed;shape=mxgraph.aws4.resourceIcon;resIcon=mxgraph.aws4.lambda;" vertex="1" parent="1"><mxGeometry x="500" y="1950" width="50" height="50" as="geometry"/></mxCell><mxCell id="75" value="CDKMetadata" style="outlineConnect=0;fontColor=#B3B3B3;gradientColor=#aaaaaa;gradientDirection=north;fillColor=#aaaaaa;strokeColor=#ffffff;dashed=0;verticalLabelPosition=bottom;verticalAlign=top;align=center;html=1;fontSize=12;fontStyle=0;aspect=fixed;shape=mxgraph.aws4.resourceIcon;resIcon=mxgraph.aws4.cdk;" vertex="1" parent="1"><mxGeometry y="6300" width="50" height="50" as="geometry"/></mxCell><mxCell id="UserAuthorizerFunctionServiceRoleBFD21313|UserAuthorizerFunction3DC8B68B" value="Role" style="edgeStyle=orthogonalEdgeStyle;rounded=1;orthogonalLoop=1;jettySize=auto;html=1;labelBackgroundColor=none;fontColor=#EA6B66;noEdgeStyle=1;orthogonal=1;" edge="1" parent="1" source="3" target="39"><mxGeometry relative="1" as="geometry"><Array as="points"><mxPoint x="312" y="3925"/><mxPoint x="488" y="3925"/></Array></mxGeometry></mxCell><mxCell id="ApiApiGateway8FA53210|ApiApiGatewayDefaultStage45C4E76D" value="ApiId" style="edgeStyle=orthogonalEdgeStyle;rounded=1;orthogonalLoop=1;jettySize=auto;html=1;labelBackgroundColor=none;fontColor=#EA6B66;noEdgeStyle=1;orthogonal=1;" edge="1" parent="1" source="5" target="41"><mxGeometry relative="1" as="geometry"><Array as="points"><mxPoint x="312" y="1425"/><mxPoint x="468" y="1424.999999999999"/></Array></mxGeometry></mxCell><mxCell id="ApiApiGateway8FA53210|ApiApiGatewayPOSTcommandsrunDatabaseMigrationsDevGolangServerlessCDKTemplateApiApiGatewayPOSTcommandsrunDatabaseMigrations32D7928DPermissionB0EED37C" value="SourceArn" style="edgeStyle=orthogonalEdgeStyle;rounded=1;orthogonalLoop=1;jettySize=auto;html=1;labelBackgroundColor=none;fontColor=#EA6B66;noEdgeStyle=1;orthogonal=1;" edge="1" parent="1" source="6" target="41"><mxGeometry relative="1" as="geometry"><Array as="points"><mxPoint x="312" y="235"/><mxPoint x="486" y="1403.5714285714284"/></Array></mxGeometry></mxCell><mxCell id="ApirunDatabaseMigrationsFunction33DD5780|ApiApiGatewayPOSTcommandsrunDatabaseMigrationsDevGolangServerlessCDKTemplateApiApiGatewayPOSTcommandsrunDatabaseMigrations32D7928DPermissionB0EED37C" value="FunctionName" style="edgeStyle=orthogonalEdgeStyle;rounded=1;orthogonalLoop=1;jettySize=auto;html=1;labelBackgroundColor=none;fontColor=#EA6B66;noEdgeStyle=1;orthogonal=1;" edge="1" parent="1" source="6" target="64"><mxGeometry relative="1" as="geometry"><Array as="points"><mxPoint x="312" y="215"/><mxPoint x="488" y="765"/></Array></mxGeometry></mxCell><mxCell id="ApiApiGateway8FA53210|ApiApiGatewayPOSTcommandsrunDatabaseMigrationsHttpIntegrationdd45a4ab1a687d8fced4e8e100026e1bA9078769" value="ApiId" style="edgeStyle=orthogonalEdgeStyle;rounded=1;orthogonalLoop=1;jettySize=auto;html=1;labelBackgroundColor=none;fontColor=#EA6B66;noEdgeStyle=1;orthogonal=1;" edge="1" parent="1" source="7" target="41"><mxGeometry relative="1" as="geometry"><Array as="points"><mxPoint x="312" y="1335"/><mxPoint x="470" y="1422.6190476190468"/></Array></mxGeometry></mxCell><mxCell id="ApirunDatabaseMigrationsFunction33DD5780|ApiApiGatewayPOSTcommandsrunDatabaseMigrationsHttpIntegrationdd45a4ab1a687d8fced4e8e100026e1bA9078769" value="IntegrationUri" style="edgeStyle=orthogonalEdgeStyle;rounded=1;orthogonalLoop=1;jettySize=auto;html=1;labelBackgroundColor=none;fontColor=#EA6B66;noEdgeStyle=1;orthogonal=1;" edge="1" parent="1" source="7" target="64"><mxGeometry relative="1" as="geometry"><Array as="points"><mxPoint x="312" y="1315"/><mxPoint x="488" y="785"/></Array></mxGeometry></mxCell><mxCell id="ApiApiGateway8FA53210|ApiApiGatewayPOSTcommandsrunDatabaseMigrations44D90285" value="ApiId" style="edgeStyle=orthogonalEdgeStyle;rounded=1;orthogonalLoop=1;jettySize=auto;html=1;labelBackgroundColor=none;fontColor=#EA6B66;noEdgeStyle=1;orthogonal=1;" edge="1" parent="1" source="8" target="41"><mxGeometry relative="1" as="geometry"><Array as="points"><mxPoint x="64" y="300"/><mxPoint x="150" y="300"/><mxPoint x="400" y="300"/><mxPoint x="484" y="1405.9523809523807"/></Array></mxGeometry></mxCell><mxCell id="ApiApiGatewayUserAuthorizer69925AFF|ApiApiGatewayPOSTcommandsrunDatabaseMigrations44D90285" value="AuthorizerId" style="edgeStyle=orthogonalEdgeStyle;rounded=1;orthogonalLoop=1;jettySize=auto;html=1;labelBackgroundColor=none;fontColor=#EA6B66;noEdgeStyle=1;orthogonal=1;" edge="1" parent="1" source="8" target="46"><mxGeometry relative="1" as="geometry"><Array as="points"><mxPoint x="62" y="313.3333333333333"/><mxPoint x="236" y="510.7142857142857"/></Array></mxGeometry></mxCell><mxCell id="ApiApiGatewayPOSTcommandsrunDatabaseMigrationsHttpIntegrationdd45a4ab1a687d8fced4e8e100026e1bA9078769|ApiApiGatewayPOSTcommandsrunDatabaseMigrations44D90285" value="Target" style="edgeStyle=orthogonalEdgeStyle;rounded=1;orthogonalLoop=1;jettySize=auto;html=1;labelBackgroundColor=none;fontColor=#EA6B66;noEdgeStyle=1;orthogonal=1;" edge="1" parent="1" source="8" target="44"><mxGeometry relative="1" as="geometry"><Array as="points"><mxPoint x="62" y="286.6666666666667"/><mxPoint x="238" y="125"/></Array></mxGeometry></mxCell><mxCell id="ApiApiGateway8FA53210|ApiApiGatewayUserAuthorizer69925AFF" value="ApiId" style="edgeStyle=orthogonalEdgeStyle;rounded=1;orthogonalLoop=1;jettySize=auto;html=1;labelBackgroundColor=none;fontColor=#EA6B66;noEdgeStyle=1;orthogonal=1;" edge="1" parent="1" source="9" target="41"><mxGeometry relative="1" as="geometry"><Array as="points"><mxPoint x="312" y="1235"/><mxPoint x="472" y="1420.2380952380945"/></Array></mxGeometry></mxCell><mxCell id="UserAuthorizerFunction3DC8B68B|ApiApiGatewayUserAuthorizer69925AFF" value="AuthorizerUri" style="edgeStyle=orthogonalEdgeStyle;rounded=1;orthogonalLoop=1;jettySize=auto;html=1;labelBackgroundColor=none;fontColor=#EA6B66;noEdgeStyle=1;orthogonal=1;" edge="1" parent="1" source="9" target="40"><mxGeometry relative="1" as="geometry"><Array as="points"><mxPoint x="312" y="1215"/><mxPoint x="488" y="622.5"/></Array></mxGeometry></mxCell><mxCell id="ApiApiGateway8FA53210|ApiApiGatewayDevGolangServerlessCDKTemplateApiApiGatewayUserAuthorizer234FEDB8PermissionFEFC5203" value="SourceArn" style="edgeStyle=orthogonalEdgeStyle;rounded=1;orthogonalLoop=1;jettySize=auto;html=1;labelBackgroundColor=none;fontColor=#EA6B66;noEdgeStyle=1;orthogonal=1;" edge="1" parent="1" source="10" target="41"><mxGeometry relative="1" as="geometry"><Array as="points"><mxPoint x="64" y="50"/><mxPoint x="150" y="50"/><mxPoint x="400" y="50"/><mxPoint x="488" y="1401.1904761904761"/></Array></mxGeometry></mxCell><mxCell id="ApiApiGatewayUserAuthorizer69925AFF|ApiApiGatewayDevGolangServerlessCDKTemplateApiApiGatewayUserAuthorizer234FEDB8PermissionFEFC5203" value="SourceArn" style="edgeStyle=orthogonalEdgeStyle;rounded=1;orthogonalLoop=1;jettySize=auto;html=1;labelBackgroundColor=none;fontColor=#EA6B66;noEdgeStyle=1;orthogonal=1;" edge="1" parent="1" source="10" target="46"><mxGeometry relative="1" as="geometry"><Array as="points"><mxPoint x="62" y="63.333333333333336"/><mxPoint x="238" y="503.57142857142856"/></Array></mxGeometry></mxCell><mxCell id="UserAuthorizerFunction3DC8B68B|ApiApiGatewayDevGolangServerlessCDKTemplateApiApiGatewayUserAuthorizer234FEDB8PermissionFEFC5203" value="FunctionName" style="edgeStyle=orthogonalEdgeStyle;rounded=1;orthogonalLoop=1;jettySize=auto;html=1;labelBackgroundColor=none;fontColor=#EA6B66;noEdgeStyle=1;orthogonal=1;" edge="1" parent="1" source="10" target="40"><mxGeometry relative="1" as="geometry"><Array as="points"><mxPoint x="62" y="36.666666666666664"/><mxPoint x="150"/><mxPoint x="400"/><mxPoint x="488" y="602.5"/></Array></mxGeometry></mxCell><mxCell id="ApiApiGateway8FA53210|ApiApiGatewayGETadminleaguesDevGolangServerlessCDKTemplateApiApiGatewayGETadminleagues17039173PermissionED6566D5" value="SourceArn" style="edgeStyle=orthogonalEdgeStyle;rounded=1;orthogonalLoop=1;jettySize=auto;html=1;labelBackgroundColor=none;fontColor=#EA6B66;noEdgeStyle=1;orthogonal=1;" edge="1" parent="1" source="11" target="41"><mxGeometry relative="1" as="geometry"><Array as="points"><mxPoint x="312" y="1515"/><mxPoint x="470" y="1427.3809523809514"/></Array></mxGeometry></mxCell><mxCell id="ApisearchLeaguesFunction369CF89F|ApiApiGatewayGETadminleaguesDevGolangServerlessCDKTemplateApiApiGatewayGETadminleagues17039173PermissionED6566D5" value="FunctionName" style="edgeStyle=orthogonalEdgeStyle;rounded=1;orthogonalLoop=1;jettySize=auto;html=1;labelBackgroundColor=none;fontColor=#EA6B66;noEdgeStyle=1;orthogonal=1;" edge="1" parent="1" source="11" target="66"><mxGeometry relative="1" as="geometry"><Array as="points"><mxPoint x="312" y="1535"/><mxPoint x="488" y="1565"/></Array></mxGeometry></mxCell><mxCell id="ApiApiGateway8FA53210|ApiApiGatewayGETadminleaguesHttpIntegration4b225d72860e46cd9ec0adb1603a42b4F1117C7F" value="ApiId" style="edgeStyle=orthogonalEdgeStyle;rounded=1;orthogonalLoop=1;jettySize=auto;html=1;labelBackgroundColor=none;fontColor=#EA6B66;noEdgeStyle=1;orthogonal=1;" edge="1" parent="1" source="12" target="41"><mxGeometry relative="1" as="geometry"><Array as="points"><mxPoint x="312" y="1615"/><mxPoint x="472" y="1429.7619047619037"/></Array></mxGeometry></mxCell><mxCell id="ApisearchLeaguesFunction369CF89F|ApiApiGatewayGETadminleaguesHttpIntegration4b225d72860e46cd9ec0adb1603a42b4F1117C7F" value="IntegrationUri" style="edgeStyle=orthogonalEdgeStyle;rounded=1;orthogonalLoop=1;jettySize=auto;html=1;labelBackgroundColor=none;fontColor=#EA6B66;noEdgeStyle=1;orthogonal=1;" edge="1" parent="1" source="12" target="66"><mxGeometry relative="1" as="geometry"><Array as="points"><mxPoint x="312" y="1635"/><mxPoint x="488" y="1585"/></Array></mxGeometry></mxCell><mxCell id="ApiApiGateway8FA53210|ApiApiGatewayGETadminleagues68E60FC6" value="ApiId" style="edgeStyle=orthogonalEdgeStyle;rounded=1;orthogonalLoop=1;jettySize=auto;html=1;labelBackgroundColor=none;fontColor=#EA6B66;noEdgeStyle=1;orthogonal=1;" edge="1" parent="1" source="13" target="41"><mxGeometry relative="1" as="geometry"><Array as="points"><mxPoint x="64" y="450"/><mxPoint x="150" y="450"/><mxPoint x="400" y="450"/><mxPoint x="482" y="1408.333333333333"/></Array></mxGeometry></mxCell><mxCell id="ApiApiGatewayUserAuthorizer69925AFF|ApiApiGatewayGETadminleagues68E60FC6" value="AuthorizerId" style="edgeStyle=orthogonalEdgeStyle;rounded=1;orthogonalLoop=1;jettySize=auto;html=1;labelBackgroundColor=none;fontColor=#EA6B66;noEdgeStyle=1;orthogonal=1;" edge="1" parent="1" source="13" target="46"><mxGeometry relative="1" as="geometry"><Array as="points"><mxPoint x="62" y="463.3333333333333"/><mxPoint x="234" y="517.8571428571429"/></Array></mxGeometry></mxCell><mxCell id="ApiApiGatewayGETadminleaguesHttpIntegration4b225d72860e46cd9ec0adb1603a42b4F1117C7F|ApiApiGatewayGETadminleagues68E60FC6" value="Target" style="edgeStyle=orthogonalEdgeStyle;rounded=1;orthogonalLoop=1;jettySize=auto;html=1;labelBackgroundColor=none;fontColor=#EA6B66;noEdgeStyle=1;orthogonal=1;" edge="1" parent="1" source="13" target="49"><mxGeometry relative="1" as="geometry"><Array as="points"><mxPoint x="62" y="436.6666666666667"/><mxPoint x="238" y="375"/></Array></mxGeometry></mxCell><mxCell id="ApiApiGateway8FA53210|ApiApiGatewayGETadminleagueleagueIdDevGolangServerlessCDKTemplateApiApiGatewayGETadminleagueleagueIdAA9EA8C1Permission349D13AD" value="SourceArn" style="edgeStyle=orthogonalEdgeStyle;rounded=1;orthogonalLoop=1;jettySize=auto;html=1;labelBackgroundColor=none;fontColor=#EA6B66;noEdgeStyle=1;orthogonal=1;" edge="1" parent="1" source="14" target="41"><mxGeometry relative="1" as="geometry"><Array as="points"><mxPoint x="312" y="1915"/><mxPoint x="476" y="1434.5238095238083"/></Array></mxGeometry></mxCell><mxCell id="ApigetLeagueByIdFunction553AFD94|ApiApiGatewayGETadminleagueleagueIdDevGolangServerlessCDKTemplateApiApiGatewayGETadminleagueleagueIdAA9EA8C1Permission349D13AD" value="FunctionName" style="edgeStyle=orthogonalEdgeStyle;rounded=1;orthogonalLoop=1;jettySize=auto;html=1;labelBackgroundColor=none;fontColor=#EA6B66;noEdgeStyle=1;orthogonal=1;" edge="1" parent="1" source="14" target="68"><mxGeometry relative="1" as="geometry"><Array as="points"><mxPoint x="312" y="1935"/><mxPoint x="488" y="1685"/></Array></mxGeometry></mxCell><mxCell id="ApiApiGateway8FA53210|ApiApiGatewayGETadminleagueleagueIdHttpIntegration26aa1800e71b78cc3b42f429bdd9f74a57E5CB0A" value="ApiId" style="edgeStyle=orthogonalEdgeStyle;rounded=1;orthogonalLoop=1;jettySize=auto;html=1;labelBackgroundColor=none;fontColor=#EA6B66;noEdgeStyle=1;orthogonal=1;" edge="1" parent="1" source="15" target="41"><mxGeometry relative="1" as="geometry"><Array as="points"><mxPoint x="312" y="1815"/><mxPoint x="474" y="1432.142857142856"/></Array></mxGeometry></mxCell><mxCell id="ApigetLeagueByIdFunction553AFD94|ApiApiGatewayGETadminleagueleagueIdHttpIntegration26aa1800e71b78cc3b42f429bdd9f74a57E5CB0A" value="IntegrationUri" style="edgeStyle=orthogonalEdgeStyle;rounded=1;orthogonalLoop=1;jettySize=auto;html=1;labelBackgroundColor=none;fontColor=#EA6B66;noEdgeStyle=1;orthogonal=1;" edge="1" parent="1" source="15" target="68"><mxGeometry relative="1" as="geometry"><Array as="points"><mxPoint x="312" y="1835"/><mxPoint x="488" y="1665"/></Array></mxGeometry></mxCell><mxCell id="ApiApiGateway8FA53210|ApiApiGatewayGETadminleagueleagueId5D07B7BD" value="ApiId" style="edgeStyle=orthogonalEdgeStyle;rounded=1;orthogonalLoop=1;jettySize=auto;html=1;labelBackgroundColor=none;fontColor=#EA6B66;noEdgeStyle=1;orthogonal=1;" edge="1" parent="1" source="16" target="41"><mxGeometry relative="1" as="geometry"><Array as="points"><mxPoint x="64" y="600"/><mxPoint x="150" y="600"/><mxPoint x="400" y="600"/><mxPoint x="480" y="1410.7142857142853"/></Array></mxGeometry></mxCell><mxCell id="ApiApiGatewayUserAuthorizer69925AFF|ApiApiGatewayGETadminleagueleagueId5D07B7BD" value="AuthorizerId" style="edgeStyle=orthogonalEdgeStyle;rounded=1;orthogonalLoop=1;jettySize=auto;html=1;labelBackgroundColor=none;fontColor=#EA6B66;noEdgeStyle=1;orthogonal=1;" edge="1" parent="1" source="16" target="46"><mxGeometry relative="1" as="geometry"><Array as="points"><mxPoint x="62" y="586.6666666666666"/><mxPoint x="232" y="525"/></Array></mxGeometry></mxCell><mxCell id="ApiApiGatewayGETadminleagueleagueIdHttpIntegration26aa1800e71b78cc3b42f429bdd9f74a57E5CB0A|ApiApiGatewayGETadminleagueleagueId5D07B7BD" value="Target" style="edgeStyle=orthogonalEdgeStyle;rounded=1;orthogonalLoop=1;jettySize=auto;html=1;labelBackgroundColor=none;fontColor=#EA6B66;noEdgeStyle=1;orthogonal=1;" edge="1" parent="1" source="16" target="52"><mxGeometry relative="1" as="geometry"><Array as="points"><mxPoint x="62" y="613.3333333333334"/><mxPoint x="238" y="675"/></Array></mxGeometry></mxCell><mxCell id="ApiApiGateway8FA53210|ApiApiGatewayPOSTcommandscreateLeagueDevGolangServerlessCDKTemplateApiApiGatewayPOSTcommandscreateLeague7C266B94PermissionBC6A177C" value="SourceArn" style="edgeStyle=orthogonalEdgeStyle;rounded=1;orthogonalLoop=1;jettySize=auto;html=1;labelBackgroundColor=none;fontColor=#EA6B66;noEdgeStyle=1;orthogonal=1;" edge="1" parent="1" source="17" target="41"><mxGeometry relative="1" as="geometry"><Array as="points"><mxPoint x="312" y="2115"/><mxPoint x="480" y="1439.2857142857129"/></Array></mxGeometry></mxCell><mxCell id="ApicreateLeagueFunctionB9B84F18|ApiApiGatewayPOSTcommandscreateLeagueDevGolangServerlessCDKTemplateApiApiGatewayPOSTcommandscreateLeague7C266B94PermissionBC6A177C" value="FunctionName" style="edgeStyle=orthogonalEdgeStyle;rounded=1;orthogonalLoop=1;jettySize=auto;html=1;labelBackgroundColor=none;fontColor=#EA6B66;noEdgeStyle=1;orthogonal=1;" edge="1" parent="1" source="17" target="70"><mxGeometry relative="1" as="geometry"><Array as="points"><mxPoint x="312" y="2135"/><mxPoint x="488" y="1785"/></Array></mxGeometry></mxCell><mxCell id="ApiApiGateway8FA53210|ApiApiGatewayPOSTcommandscreateLeagueHttpIntegration239ede395f0f056b577c700f4475e6e756F0C1DB" value="ApiId" style="edgeStyle=orthogonalEdgeStyle;rounded=1;orthogonalLoop=1;jettySize=auto;html=1;labelBackgroundColor=none;fontColor=#EA6B66;noEdgeStyle=1;orthogonal=1;" edge="1" parent="1" source="18" target="41"><mxGeometry relative="1" as="geometry"><Array as="points"><mxPoint x="312" y="2015"/><mxPoint x="478" y="1436.9047619047606"/></Array></mxGeometry></mxCell><mxCell id="ApicreateLeagueFunctionB9B84F18|ApiApiGatewayPOSTcommandscreateLeagueHttpIntegration239ede395f0f056b577c700f4475e6e756F0C1DB" value="IntegrationUri" style="edgeStyle=orthogonalEdgeStyle;rounded=1;orthogonalLoop=1;jettySize=auto;html=1;labelBackgroundColor=none;fontColor=#EA6B66;noEdgeStyle=1;orthogonal=1;" edge="1" parent="1" source="18" target="70"><mxGeometry relative="1" as="geometry"><Array as="points"><mxPoint x="312" y="2035"/><mxPoint x="488" y="1765"/></Array></mxGeometry></mxCell><mxCell id="ApiApiGateway8FA53210|ApiApiGatewayPOSTcommandscreateLeagueB33A3A0B" value="ApiId" style="edgeStyle=orthogonalEdgeStyle;rounded=1;orthogonalLoop=1;jettySize=auto;html=1;labelBackgroundColor=none;fontColor=#EA6B66;noEdgeStyle=1;orthogonal=1;" edge="1" parent="1" source="19" target="41"><mxGeometry relative="1" as="geometry"><Array as="points"><mxPoint x="64" y="750"/><mxPoint x="150" y="750"/><mxPoint x="400" y="750"/><mxPoint x="478" y="1413.0952380952376"/></Array></mxGeometry></mxCell><mxCell id="ApiApiGatewayUserAuthorizer69925AFF|ApiApiGatewayPOSTcommandscreateLeagueB33A3A0B" value="AuthorizerId" style="edgeStyle=orthogonalEdgeStyle;rounded=1;orthogonalLoop=1;jettySize=auto;html=1;labelBackgroundColor=none;fontColor=#EA6B66;noEdgeStyle=1;orthogonal=1;" edge="1" parent="1" source="19" target="46"><mxGeometry relative="1" as="geometry"><Array as="points"><mxPoint x="62" y="736.6666666666666"/><mxPoint x="234" y="532.1428571428571"/></Array></mxGeometry></mxCell><mxCell id="ApiApiGatewayPOSTcommandscreateLeagueHttpIntegration239ede395f0f056b577c700f4475e6e756F0C1DB|ApiApiGatewayPOSTcommandscreateLeagueB33A3A0B" value="Target" style="edgeStyle=orthogonalEdgeStyle;rounded=1;orthogonalLoop=1;jettySize=auto;html=1;labelBackgroundColor=none;fontColor=#EA6B66;noEdgeStyle=1;orthogonal=1;" edge="1" parent="1" source="19" target="55"><mxGeometry relative="1" as="geometry"><Array as="points"><mxPoint x="62" y="763.3333333333334"/><mxPoint x="238" y="825"/></Array></mxGeometry></mxCell><mxCell id="ApiApiGateway8FA53210|ApiApiGatewayPOSTcommandsdeleteLeagueDevGolangServerlessCDKTemplateApiApiGatewayPOSTcommandsdeleteLeagueD0665E6BPermission1770DECE" value="SourceArn" style="edgeStyle=orthogonalEdgeStyle;rounded=1;orthogonalLoop=1;jettySize=auto;html=1;labelBackgroundColor=none;fontColor=#EA6B66;noEdgeStyle=1;orthogonal=1;" edge="1" parent="1" source="20" target="41"><mxGeometry relative="1" as="geometry"><Array as="points"><mxPoint x="312" y="2315"/><mxPoint x="484" y="1444.0476190476174"/></Array></mxGeometry></mxCell><mxCell id="ApideleteLeagueFunctionF1B16820|ApiApiGatewayPOSTcommandsdeleteLeagueDevGolangServerlessCDKTemplateApiApiGatewayPOSTcommandsdeleteLeagueD0665E6BPermission1770DECE" value="FunctionName" style="edgeStyle=orthogonalEdgeStyle;rounded=1;orthogonalLoop=1;jettySize=auto;html=1;labelBackgroundColor=none;fontColor=#EA6B66;noEdgeStyle=1;orthogonal=1;" edge="1" parent="1" source="20" target="72"><mxGeometry relative="1" as="geometry"><Array as="points"><mxPoint x="312" y="2335"/><mxPoint x="488" y="1885"/></Array></mxGeometry></mxCell><mxCell id="ApiApiGateway8FA53210|ApiApiGatewayPOSTcommandsdeleteLeagueHttpIntegration81aec5a85225035c6b4853e91a501afaD56EC450" value="ApiId" style="edgeStyle=orthogonalEdgeStyle;rounded=1;orthogonalLoop=1;jettySize=auto;html=1;labelBackgroundColor=none;fontColor=#EA6B66;noEdgeStyle=1;orthogonal=1;" edge="1" parent="1" source="21" target="41"><mxGeometry relative="1" as="geometry"><Array as="points"><mxPoint x="312" y="2215"/><mxPoint x="482" y="1441.6666666666652"/></Array></mxGeometry></mxCell><mxCell id="ApideleteLeagueFunctionF1B16820|ApiApiGatewayPOSTcommandsdeleteLeagueHttpIntegration81aec5a85225035c6b4853e91a501afaD56EC450" value="IntegrationUri" style="edgeStyle=orthogonalEdgeStyle;rounded=1;orthogonalLoop=1;jettySize=auto;html=1;labelBackgroundColor=none;fontColor=#EA6B66;noEdgeStyle=1;orthogonal=1;" edge="1" parent="1" source="21" target="72"><mxGeometry relative="1" as="geometry"><Array as="points"><mxPoint x="312" y="2235"/><mxPoint x="488" y="1865"/></Array></mxGeometry></mxCell><mxCell id="ApiApiGateway8FA53210|ApiApiGatewayPOSTcommandsdeleteLeague5288A2D0" value="ApiId" style="edgeStyle=orthogonalEdgeStyle;rounded=1;orthogonalLoop=1;jettySize=auto;html=1;labelBackgroundColor=none;fontColor=#EA6B66;noEdgeStyle=1;orthogonal=1;" edge="1" parent="1" source="22" target="41"><mxGeometry relative="1" as="geometry"><Array as="points"><mxPoint x="64" y="900"/><mxPoint x="150" y="900"/><mxPoint x="400" y="900"/><mxPoint x="476" y="1415.47619047619"/></Array></mxGeometry></mxCell><mxCell id="ApiApiGatewayUserAuthorizer69925AFF|ApiApiGatewayPOSTcommandsdeleteLeague5288A2D0" value="AuthorizerId" style="edgeStyle=orthogonalEdgeStyle;rounded=1;orthogonalLoop=1;jettySize=auto;html=1;labelBackgroundColor=none;fontColor=#EA6B66;noEdgeStyle=1;orthogonal=1;" edge="1" parent="1" source="22" target="46"><mxGeometry relative="1" as="geometry"><Array as="points"><mxPoint x="62" y="886.6666666666666"/><mxPoint x="236" y="539.2857142857142"/></Array></mxGeometry></mxCell><mxCell id="ApiApiGatewayPOSTcommandsdeleteLeagueHttpIntegration81aec5a85225035c6b4853e91a501afaD56EC450|ApiApiGatewayPOSTcommandsdeleteLeague5288A2D0" value="Target" style="edgeStyle=orthogonalEdgeStyle;rounded=1;orthogonalLoop=1;jettySize=auto;html=1;labelBackgroundColor=none;fontColor=#EA6B66;noEdgeStyle=1;orthogonal=1;" edge="1" parent="1" source="22" target="58"><mxGeometry relative="1" as="geometry"><Array as="points"><mxPoint x="62" y="913.3333333333334"/><mxPoint x="238" y="975"/></Array></mxGeometry></mxCell><mxCell id="ApiApiGateway8FA53210|ApiApiGatewayPOSTcommandsudpateLeagueDevGolangServerlessCDKTemplateApiApiGatewayPOSTcommandsudpateLeague2842AD87Permission2F11E945" value="SourceArn" style="edgeStyle=orthogonalEdgeStyle;rounded=1;orthogonalLoop=1;jettySize=auto;html=1;labelBackgroundColor=none;fontColor=#EA6B66;noEdgeStyle=1;orthogonal=1;" edge="1" parent="1" source="23" target="41"><mxGeometry relative="1" as="geometry"><Array as="points"><mxPoint x="312" y="2515"/><mxPoint x="488" y="1448.809523809522"/></Array></mxGeometry></mxCell><mxCell id="ApiupdateLeagueFunction702EB522|ApiApiGatewayPOSTcommandsudpateLeagueDevGolangServerlessCDKTemplateApiApiGatewayPOSTcommandsudpateLeague2842AD87Permission2F11E945" value="FunctionName" style="edgeStyle=orthogonalEdgeStyle;rounded=1;orthogonalLoop=1;jettySize=auto;html=1;labelBackgroundColor=none;fontColor=#EA6B66;noEdgeStyle=1;orthogonal=1;" edge="1" parent="1" source="23" target="74"><mxGeometry relative="1" as="geometry"><Array as="points"><mxPoint x="312" y="2535"/><mxPoint x="488" y="1985"/></Array></mxGeometry></mxCell><mxCell id="ApiApiGateway8FA53210|ApiApiGatewayPOSTcommandsudpateLeagueHttpIntegration72125546cc61a4a8fd178e28986ee3086C9B6E9B" value="ApiId" style="edgeStyle=orthogonalEdgeStyle;rounded=1;orthogonalLoop=1;jettySize=auto;html=1;labelBackgroundColor=none;fontColor=#EA6B66;noEdgeStyle=1;orthogonal=1;" edge="1" parent="1" source="24" target="41"><mxGeometry relative="1" as="geometry"><Array as="points"><mxPoint x="312" y="2415"/><mxPoint x="486" y="1446.4285714285697"/></Array></mxGeometry></mxCell><mxCell id="ApiupdateLeagueFunction702EB522|ApiApiGatewayPOSTcommandsudpateLeagueHttpIntegration72125546cc61a4a8fd178e28986ee3086C9B6E9B" value="IntegrationUri" style="edgeStyle=orthogonalEdgeStyle;rounded=1;orthogonalLoop=1;jettySize=auto;html=1;labelBackgroundColor=none;fontColor=#EA6B66;noEdgeStyle=1;orthogonal=1;" edge="1" parent="1" source="24" target="74"><mxGeometry relative="1" as="geometry"><Array as="points"><mxPoint x="312" y="2435"/><mxPoint x="488" y="1965"/></Array></mxGeometry></mxCell><mxCell id="ApiApiGateway8FA53210|ApiApiGatewayPOSTcommandsudpateLeagueCE9BDE97" value="ApiId" style="edgeStyle=orthogonalEdgeStyle;rounded=1;orthogonalLoop=1;jettySize=auto;html=1;labelBackgroundColor=none;fontColor=#EA6B66;noEdgeStyle=1;orthogonal=1;" edge="1" parent="1" source="25" target="41"><mxGeometry relative="1" as="geometry"><Array as="points"><mxPoint x="64" y="1050"/><mxPoint x="150" y="1050"/><mxPoint x="400" y="1050"/><mxPoint x="474" y="1417.8571428571422"/></Array></mxGeometry></mxCell><mxCell id="ApiApiGatewayUserAuthorizer69925AFF|ApiApiGatewayPOSTcommandsudpateLeagueCE9BDE97" value="AuthorizerId" style="edgeStyle=orthogonalEdgeStyle;rounded=1;orthogonalLoop=1;jettySize=auto;html=1;labelBackgroundColor=none;fontColor=#EA6B66;noEdgeStyle=1;orthogonal=1;" edge="1" parent="1" source="25" target="46"><mxGeometry relative="1" as="geometry"><Array as="points"><mxPoint x="62" y="1036.6666666666667"/><mxPoint x="238" y="546.4285714285713"/></Array></mxGeometry></mxCell><mxCell id="ApiApiGatewayPOSTcommandsudpateLeagueHttpIntegration72125546cc61a4a8fd178e28986ee3086C9B6E9B|ApiApiGatewayPOSTcommandsudpateLeagueCE9BDE97" value="Target" style="edgeStyle=orthogonalEdgeStyle;rounded=1;orthogonalLoop=1;jettySize=auto;html=1;labelBackgroundColor=none;fontColor=#EA6B66;noEdgeStyle=1;orthogonal=1;" edge="1" parent="1" source="25" target="61"><mxGeometry relative="1" as="geometry"><Array as="points"><mxPoint x="62" y="1063.3333333333333"/><mxPoint x="238" y="1125"/></Array></mxGeometry></mxCell><mxCell id="ApirunDatabaseMigrationsFunctionServiceRole42786703|ApirunDatabaseMigrationsFunction33DD5780" value="Role" style="edgeStyle=orthogonalEdgeStyle;rounded=1;orthogonalLoop=1;jettySize=auto;html=1;labelBackgroundColor=none;fontColor=#EA6B66;noEdgeStyle=1;orthogonal=1;" edge="1" parent="1" source="27" target="63"><mxGeometry relative="1" as="geometry"><Array as="points"><mxPoint x="312" y="2625"/><mxPoint x="488" y="2075"/></Array></mxGeometry></mxCell><mxCell id="ApisearchLeaguesFunctionServiceRoleC4F419C7|ApisearchLeaguesFunction369CF89F" value="Role" style="edgeStyle=orthogonalEdgeStyle;rounded=1;orthogonalLoop=1;jettySize=auto;html=1;labelBackgroundColor=none;fontColor=#EA6B66;noEdgeStyle=1;orthogonal=1;" edge="1" parent="1" source="29" target="65"><mxGeometry relative="1" as="geometry"><Array as="points"><mxPoint x="312" y="2725"/><mxPoint x="488" y="2175"/></Array></mxGeometry></mxCell><mxCell id="ApigetLeagueByIdFunctionServiceRole7BED2FF0|ApigetLeagueByIdFunction553AFD94" value="Role" style="edgeStyle=orthogonalEdgeStyle;rounded=1;orthogonalLoop=1;jettySize=auto;html=1;labelBackgroundColor=none;fontColor=#EA6B66;noEdgeStyle=1;orthogonal=1;" edge="1" parent="1" source="31" target="67"><mxGeometry relative="1" as="geometry"><Array as="points"><mxPoint x="312" y="2825"/><mxPoint x="488" y="2275"/></Array></mxGeometry></mxCell><mxCell id="ApicreateLeagueFunctionServiceRoleD3623658|ApicreateLeagueFunctionB9B84F18" value="Role" style="edgeStyle=orthogonalEdgeStyle;rounded=1;orthogonalLoop=1;jettySize=auto;html=1;labelBackgroundColor=none;fontColor=#EA6B66;noEdgeStyle=1;orthogonal=1;" edge="1" parent="1" source="33" target="69"><mxGeometry relative="1" as="geometry"><Array as="points"><mxPoint x="312" y="2925"/><mxPoint x="488" y="2375"/></Array></mxGeometry></mxCell><mxCell id="ApideleteLeagueFunctionServiceRoleAB78B673|ApideleteLeagueFunctionF1B16820" value="Role" style="edgeStyle=orthogonalEdgeStyle;rounded=1;orthogonalLoop=1;jettySize=auto;html=1;labelBackgroundColor=none;fontColor=#EA6B66;noEdgeStyle=1;orthogonal=1;" edge="1" parent="1" source="35" target="71"><mxGeometry relative="1" as="geometry"><Array as="points"><mxPoint x="312" y="3025"/><mxPoint x="488" y="2475"/></Array></mxGeometry></mxCell><mxCell id="ApiupdateLeagueFunctionServiceRoleFA292EC0|ApiupdateLeagueFunction702EB522" value="Role" style="edgeStyle=orthogonalEdgeStyle;rounded=1;orthogonalLoop=1;jettySize=auto;html=1;labelBackgroundColor=none;fontColor=#EA6B66;noEdgeStyle=1;orthogonal=1;" edge="1" parent="1" source="37" target="73"><mxGeometry relative="1" as="geometry"><Array as="points"><mxPoint x="312" y="3225"/><mxPoint x="488" y="2575"/></Array></mxGeometry></mxCell><mxCell id="76" value="DevGolangServerlessCDKTemplate92CEAE12" style="outlineConnect=0;fontColor=#B3B3B3;gradientColor=#F34482;gradientDirection=north;fillColor=#BC1356;strokeColor=#ffffff;dashed=0;verticalLabelPosition=bottom;verticalAlign=top;align=center;html=1;fontSize=12;fontStyle=0;aspect=fixed;shape=mxgraph.aws4.resourceIcon;resIcon=mxgraph.aws4.cloudformation;" vertex="1" parent="1"><mxGeometry y="2850" width="50" height="50" as="geometry"/></mxCell><mxCell id="ApiApiGateway8FA53210|DevGolangServerlessCDKTemplate92CEAE12" value="ApiId&#xA;SourceArn&#xA;Value" style="edgeStyle=orthogonalEdgeStyle;rounded=1;orthogonalLoop=1;jettySize=auto;html=1;labelBackgroundColor=none;fontColor=#EA6B66;noEdgeStyle=1;orthogonal=1;" edge="1" parent="1" source="76" target="4"><mxGeometry relative="1" as="geometry"><Array as="points"><mxPoint x="68" y="2857.954545454546"/><mxPoint x="238" y="1725"/></Array></mxGeometry></mxCell><mxCell id="ApiApiGatewayUserAuthorizer69925AFF|DevGolangServerlessCDKTemplate92CEAE12" value="AuthorizerId&#xA;SourceArn" style="edgeStyle=orthogonalEdgeStyle;rounded=1;orthogonalLoop=1;jettySize=auto;html=1;labelBackgroundColor=none;fontColor=#EA6B66;noEdgeStyle=1;orthogonal=1;" edge="1" parent="1" source="76" target="9"><mxGeometry relative="1" as="geometry"><Array as="points"><mxPoint x="62" y="2851.1363636363635"/><mxPoint x="238" y="1225"/></Array></mxGeometry></mxCell><mxCell id="ApiApiGatewayPOSTcommandsrunDatabaseMigrationsHttpIntegrationdd45a4ab1a687d8fced4e8e100026e1bA9078769|DevGolangServerlessCDKTemplate92CEAE12" value="Target" style="edgeStyle=orthogonalEdgeStyle;rounded=1;orthogonalLoop=1;jettySize=auto;html=1;labelBackgroundColor=none;fontColor=#EA6B66;noEdgeStyle=1;orthogonal=1;" edge="1" parent="1" source="76" target="7"><mxGeometry relative="1" as="geometry"><Array as="points"><mxPoint x="64" y="2853.409090909091"/><mxPoint x="238" y="1325"/></Array></mxGeometry></mxCell><mxCell id="ApiApiGatewayGETadminleaguesHttpIntegration4b225d72860e46cd9ec0adb1603a42b4F1117C7F|DevGolangServerlessCDKTemplate92CEAE12" value="Target" style="edgeStyle=orthogonalEdgeStyle;rounded=1;orthogonalLoop=1;jettySize=auto;html=1;labelBackgroundColor=none;fontColor=#EA6B66;noEdgeStyle=1;orthogonal=1;" edge="1" parent="1" source="76" target="12"><mxGeometry relative="1" as="geometry"><Array as="points"><mxPoint x="66" y="2855.6818181818185"/><mxPoint x="238" y="1625"/></Array></mxGeometry></mxCell><mxCell id="ApiApiGatewayGETadminleagueleagueIdHttpIntegration26aa1800e71b78cc3b42f429bdd9f74a57E5CB0A|DevGolangServerlessCDKTemplate92CEAE12" value="Target" style="edgeStyle=orthogonalEdgeStyle;rounded=1;orthogonalLoop=1;jettySize=auto;html=1;labelBackgroundColor=none;fontColor=#EA6B66;noEdgeStyle=1;orthogonal=1;" edge="1" parent="1" source="76" target="15"><mxGeometry relative="1" as="geometry"><Array as="points"><mxPoint x="70" y="2860.2272727272734"/><mxPoint x="238" y="1825"/></Array></mxGeometry></mxCell><mxCell id="ApiApiGatewayPOSTcommandscreateLeagueHttpIntegration239ede395f0f056b577c700f4475e6e756F0C1DB|DevGolangServerlessCDKTemplate92CEAE12" value="Target" style="edgeStyle=orthogonalEdgeStyle;rounded=1;orthogonalLoop=1;jettySize=auto;html=1;labelBackgroundColor=none;fontColor=#EA6B66;noEdgeStyle=1;orthogonal=1;" edge="1" parent="1" source="76" target="18"><mxGeometry relative="1" as="geometry"><Array as="points"><mxPoint x="72" y="2862.500000000001"/><mxPoint x="238" y="2025"/></Array></mxGeometry></mxCell><mxCell id="ApiApiGatewayPOSTcommandsdeleteLeagueHttpIntegration81aec5a85225035c6b4853e91a501afaD56EC450|DevGolangServerlessCDKTemplate92CEAE12" value="Target" style="edgeStyle=orthogonalEdgeStyle;rounded=1;orthogonalLoop=1;jettySize=auto;html=1;labelBackgroundColor=none;fontColor=#EA6B66;noEdgeStyle=1;orthogonal=1;" edge="1" parent="1" source="76" target="21"><mxGeometry relative="1" as="geometry"><Array as="points"><mxPoint x="74" y="2864.7727272727284"/><mxPoint x="238" y="2225"/></Array></mxGeometry></mxCell><mxCell id="ApiApiGatewayPOSTcommandsudpateLeagueHttpIntegration72125546cc61a4a8fd178e28986ee3086C9B6E9B|DevGolangServerlessCDKTemplate92CEAE12" value="Target" style="edgeStyle=orthogonalEdgeStyle;rounded=1;orthogonalLoop=1;jettySize=auto;html=1;labelBackgroundColor=none;fontColor=#EA6B66;noEdgeStyle=1;orthogonal=1;" edge="1" parent="1" source="76" target="24"><mxGeometry relative="1" as="geometry"><Array as="points"><mxPoint x="76" y="2867.045454545456"/><mxPoint x="238" y="2425"/></Array></mxGeometry></mxCell><mxCell id="ApirunDatabaseMigrationsFunction33DD5780|DevGolangServerlessCDKTemplate92CEAE12" value="Value&#xA;FunctionName&#xA;IntegrationUri" style="edgeStyle=orthogonalEdgeStyle;rounded=1;orthogonalLoop=1;jettySize=auto;html=1;labelBackgroundColor=none;fontColor=#EA6B66;noEdgeStyle=1;orthogonal=1;" edge="1" parent="1" source="76" target="27"><mxGeometry relative="1" as="geometry"><Array as="points"><mxPoint x="78" y="2869.3181818181833"/><mxPoint x="238" y="2625"/></Array></mxGeometry></mxCell><mxCell id="ApisearchLeaguesFunction369CF89F|DevGolangServerlessCDKTemplate92CEAE12" value="Value&#xA;FunctionName&#xA;IntegrationUri" style="edgeStyle=orthogonalEdgeStyle;rounded=1;orthogonalLoop=1;jettySize=auto;html=1;labelBackgroundColor=none;fontColor=#EA6B66;noEdgeStyle=1;orthogonal=1;" edge="1" parent="1" source="76" target="29"><mxGeometry relative="1" as="geometry"><Array as="points"><mxPoint x="80" y="2871.590909090911"/><mxPoint x="238" y="2725"/></Array></mxGeometry></mxCell><mxCell id="ApigetLeagueByIdFunction553AFD94|DevGolangServerlessCDKTemplate92CEAE12" value="Value&#xA;FunctionName&#xA;IntegrationUri" style="edgeStyle=orthogonalEdgeStyle;rounded=1;orthogonalLoop=1;jettySize=auto;html=1;labelBackgroundColor=none;fontColor=#EA6B66;noEdgeStyle=1;orthogonal=1;" edge="1" parent="1" source="76" target="31"><mxGeometry relative="1" as="geometry"><Array as="points"><mxPoint x="82" y="2873.8636363636383"/><mxPoint x="238" y="2825"/></Array></mxGeometry></mxCell><mxCell id="ApicreateLeagueFunctionB9B84F18|DevGolangServerlessCDKTemplate92CEAE12" value="Value&#xA;FunctionName&#xA;IntegrationUri" style="edgeStyle=orthogonalEdgeStyle;rounded=1;orthogonalLoop=1;jettySize=auto;html=1;labelBackgroundColor=none;fontColor=#EA6B66;noEdgeStyle=1;orthogonal=1;" edge="1" parent="1" source="76" target="33"><mxGeometry relative="1" as="geometry"><Array as="points"><mxPoint x="82" y="2876.136363636366"/><mxPoint x="238" y="2925"/></Array></mxGeometry></mxCell><mxCell id="ApideleteLeagueFunctionF1B16820|DevGolangServerlessCDKTemplate92CEAE12" value="Value&#xA;FunctionName&#xA;IntegrationUri" style="edgeStyle=orthogonalEdgeStyle;rounded=1;orthogonalLoop=1;jettySize=auto;html=1;labelBackgroundColor=none;fontColor=#EA6B66;noEdgeStyle=1;orthogonal=1;" edge="1" parent="1" source="76" target="35"><mxGeometry relative="1" as="geometry"><Array as="points"><mxPoint x="80" y="2878.4090909090933"/><mxPoint x="238" y="3025"/></Array></mxGeometry></mxCell><mxCell id="ApiupdateLeagueFunction702EB522|DevGolangServerlessCDKTemplate92CEAE12" value="Value&#xA;FunctionName&#xA;IntegrationUri" style="edgeStyle=orthogonalEdgeStyle;rounded=1;orthogonalLoop=1;jettySize=auto;html=1;labelBackgroundColor=none;fontColor=#EA6B66;noEdgeStyle=1;orthogonal=1;" edge="1" parent="1" source="76" target="37"><mxGeometry relative="1" as="geometry"><Array as="points"><mxPoint x="76" y="2882.954545454548"/><mxPoint x="238" y="3225"/></Array></mxGeometry></mxCell><mxCell id="UserAuthorizerFunctionServiceRoleBFD21313|DevGolangServerlessCDKTemplate92CEAE12" value="Role" style="edgeStyle=orthogonalEdgeStyle;rounded=1;orthogonalLoop=1;jettySize=auto;html=1;labelBackgroundColor=none;fontColor=#EA6B66;noEdgeStyle=1;orthogonal=1;" edge="1" parent="1" source="76" target="2"><mxGeometry relative="1" as="geometry"><Array as="points"><mxPoint x="78" y="2880.6818181818207"/><mxPoint x="238" y="3125"/></Array></mxGeometry></mxCell><mxCell id="UserAuthorizerFunction3DC8B68B|DevGolangServerlessCDKTemplate92CEAE12" value="AuthorizerUri&#xA;FunctionName" style="edgeStyle=orthogonalEdgeStyle;rounded=1;orthogonalLoop=1;jettySize=auto;html=1;labelBackgroundColor=none;fontColor=#EA6B66;noEdgeStyle=1;orthogonal=1;" edge="1" parent="1" source="76" target="3"><mxGeometry relative="1" as="geometry"><Array as="points"><mxPoint x="62" y="2898.8636363636406"/><mxPoint x="238" y="3925"/></Array></mxGeometry></mxCell><mxCell id="ApirunDatabaseMigrationsFunctionServiceRole42786703|DevGolangServerlessCDKTemplate92CEAE12" value="Role" style="edgeStyle=orthogonalEdgeStyle;rounded=1;orthogonalLoop=1;jettySize=auto;html=1;labelBackgroundColor=none;fontColor=#EA6B66;noEdgeStyle=1;orthogonal=1;" edge="1" parent="1" source="76" target="26"><mxGeometry relative="1" as="geometry"><Array as="points"><mxPoint x="74" y="2885.2272727272757"/><mxPoint x="238" y="3325"/></Array></mxGeometry></mxCell><mxCell id="ApisearchLeaguesFunctionServiceRoleC4F419C7|DevGolangServerlessCDKTemplate92CEAE12" value="Role" style="edgeStyle=orthogonalEdgeStyle;rounded=1;orthogonalLoop=1;jettySize=auto;html=1;labelBackgroundColor=none;fontColor=#EA6B66;noEdgeStyle=1;orthogonal=1;" edge="1" parent="1" source="76" target="28"><mxGeometry relative="1" as="geometry"><Array as="points"><mxPoint x="72" y="2887.500000000003"/><mxPoint x="238" y="3425"/></Array></mxGeometry></mxCell><mxCell id="ApigetLeagueByIdFunctionServiceRole7BED2FF0|DevGolangServerlessCDKTemplate92CEAE12" value="Role" style="edgeStyle=orthogonalEdgeStyle;rounded=1;orthogonalLoop=1;jettySize=auto;html=1;labelBackgroundColor=none;fontColor=#EA6B66;noEdgeStyle=1;orthogonal=1;" edge="1" parent="1" source="76" target="30"><mxGeometry relative="1" as="geometry"><Array as="points"><mxPoint x="70" y="2889.7727272727307"/><mxPoint x="238" y="3525"/></Array></mxGeometry></mxCell><mxCell id="ApicreateLeagueFunctionServiceRoleD3623658|DevGolangServerlessCDKTemplate92CEAE12" value="Role" style="edgeStyle=orthogonalEdgeStyle;rounded=1;orthogonalLoop=1;jettySize=auto;html=1;labelBackgroundColor=none;fontColor=#EA6B66;noEdgeStyle=1;orthogonal=1;" edge="1" parent="1" source="76" target="32"><mxGeometry relative="1" as="geometry"><Array as="points"><mxPoint x="68" y="2892.045454545458"/><mxPoint x="238" y="3625"/></Array></mxGeometry></mxCell><mxCell id="ApideleteLeagueFunctionServiceRoleAB78B673|DevGolangServerlessCDKTemplate92CEAE12" value="Role" style="edgeStyle=orthogonalEdgeStyle;rounded=1;orthogonalLoop=1;jettySize=auto;html=1;labelBackgroundColor=none;fontColor=#EA6B66;noEdgeStyle=1;orthogonal=1;" edge="1" parent="1" source="76" target="34"><mxGeometry relative="1" as="geometry"><Array as="points"><mxPoint x="66" y="2894.3181818181856"/><mxPoint x="238" y="3725"/></Array></mxGeometry></mxCell><mxCell id="ApiupdateLeagueFunctionServiceRoleFA292EC0|DevGolangServerlessCDKTemplate92CEAE12" value="Role" style="edgeStyle=orthogonalEdgeStyle;rounded=1;orthogonalLoop=1;jettySize=auto;html=1;labelBackgroundColor=none;fontColor=#EA6B66;noEdgeStyle=1;orthogonal=1;" edge="1" parent="1" source="76" target="36"><mxGeometry relative="1" as="geometry"><Array as="points"><mxPoint x="64" y="2896.590909090913"/><mxPoint x="238" y="3825"/></Array></mxGeometry></mxCell></root></mxGraphModel>
            </diagram>
          </mxfile>